<svg xmlns="http://www.w3.org/2000/svg" viewBox="0 0 250 39.997"><path d="M124.313,31.194a32.815,32.815,0,0,1-3.541,1.89,8.656,8.656,0,0,1-2.631.933,1.027,1.027,0,0,1-.814-.239.824.824,0,0,1-.191-.527,4,4,0,0,1,1.1-2.584,8.637,8.637,0,0,1,1.938-1.794,1.6,1.6,0,0,0,.837-1.458q0-.718-2.3-1.1a5.915,5.915,0,0,0,1.77-3.78q0-1.148-.956-1.148a4.689,4.689,0,0,0-3.063,1.507,4.083,4.083,0,0,0-1.626,2.727q0,1.221,2.153,1.89a19.037,19.037,0,0,1-4.305,3.588c-.011.012-.016.025-.026.036a48.892,48.892,0,0,1-5.188,2.644,9.337,9.337,0,0,1-3.517.813q-1.556,0-1.555-1.2,0-1.051,2.368-2.536t2.369-1.722c0-.16-.256-.223-.766-.192s-.861.048-1.053.048q-1.674,0-1.674-.718,0-.955,2.3-2.463a7.469,7.469,0,0,1,3.372-1.508q1.077,0,1.077.431t-.6.79c-.4.239-.567.471-.5.693a.372.372,0,0,0,.383.239,3.894,3.894,0,0,0,.766-.334,7.979,7.979,0,0,0,1.387-.909q.717-.575.717-1.053,0-.861-1.386-.861a12.22,12.22,0,0,0-6.125,2.033q-3.4,2.034-3.4,3.517,0,1.245,2.871,1.244c-2.483,1.57-3.847,2.863-4.108,3.883l-.358.159a3.256,3.256,0,0,1-1.124.359q-1.245,0-1.245-1.483a11,11,0,0,1,.336-2.775,92.773,92.773,0,0,0,9.449-11.1q4.663-6.361,4.664-7.942a1.559,1.559,0,0,0-.239-.789.71.71,0,0,0-.622-.407q-2.153,0-6.148,4.88a53.52,53.52,0,0,0-6.722,10.478,13.2,13.2,0,0,0-6.674,3.516,17.449,17.449,0,0,0-2.321,2.407,32.862,32.862,0,0,1-3.4,1.8,8.135,8.135,0,0,1-3.038.933q-1.029,0-1.028-.431a7.542,7.542,0,0,1,1.626-2.8,12.939,12.939,0,0,0,1.627-2.416.582.582,0,0,0-.575-.67,1.163,1.163,0,0,0-.621.216q-.336.214-2.2,1.626T78.2,32.223A11.2,11.2,0,0,1,76.31,33.49a.321.321,0,0,1-.216-.048q.144-.287,1.077-1.674t1.675-2.679a4.527,4.527,0,0,0,.741-1.914q0-.621-.717-.622a32.061,32.061,0,0,0-3.876,2.871A23.039,23.039,0,0,1,72.6,31.1c-.005,0-.006.01-.011.013l-.132.083a32.721,32.721,0,0,1-3.541,1.89,8.254,8.254,0,0,1-2.8.933q-.791,0-.79-.479a3.272,3.272,0,0,1,.741-1.674c.265-.375.453-.662.576-.873a4.4,4.4,0,0,0,.615-.886,6.285,6.285,0,0,0,2.183-3.552c-.08-.889-.527-1.339-1.58-1.339q-2.679,0-6.6,2.942a13.018,13.018,0,0,0-2.843,2.781l-.41.257a32.626,32.626,0,0,1-3.541,1.89,8.134,8.134,0,0,1-2.966.933q-1.1,0-1.1-2.536v-.718q3.876-2.918,7.511-5.31c.288-.16.431-.327.431-.5a.6.6,0,0,0-.288-.478.9.9,0,0,0-.526-.215q-.478,0-7.032,5.262.333-2.391.43-3.014a6.075,6.075,0,0,0,.1-.98.613.613,0,0,0-.287-.575,1.059,1.059,0,0,0-.384-.167,2.264,2.264,0,0,0-1.386.765q-1.149.863-1.149,1.2c0,.1.079.144.239.144a1.634,1.634,0,0,1,.886-.383q.358,0,.359.455c0,.295-.153,1.542-.454,3.724l-.2.127a48.139,48.139,0,0,1-5.74,2.967,9.337,9.337,0,0,1-3.517.813q-1.556,0-1.555-1.2,0-1.051,2.368-2.536t2.369-1.722c0-.16-.256-.223-.766-.192s-.861.048-1.053.048q-1.674,0-1.675-.718,0-.955,2.3-2.463A7.465,7.465,0,0,1,44.749,24.3q1.077,0,1.076.431t-.6.79c-.4.239-.566.471-.5.693a.372.372,0,0,0,.383.239,3.894,3.894,0,0,0,.766-.334,7.979,7.979,0,0,0,1.387-.909q.717-.575.717-1.053,0-.861-1.386-.861a12.22,12.22,0,0,0-6.125,2.033q-3.4,2.034-3.4,3.517,0,1.245,2.871,1.244c-.082.052-.15.1-.23.151l0-.008-1.531.957a32.626,32.626,0,0,1-3.541,1.89,8.254,8.254,0,0,1-2.8.933,1.227,1.227,0,0,1-1.125-.527,2.363,2.363,0,0,1-.382-.861,4.109,4.109,0,0,1-.049-.6,10.252,10.252,0,0,1,.1-1.028,49.016,49.016,0,0,0,5.981-5.455,82.9,82.9,0,0,0,7.248-8.515q3.374-4.545,3.373-6.555c0-.861-.3-1.292-.908-1.292q-2.49,0-6.819,4.617a56.918,56.918,0,0,0-7.7,10.43c-.489.842-.915,1.634-1.3,2.392a1.393,1.393,0,0,1-.257.167,15.824,15.824,0,0,1-5.838,1.292q.576-1.2,2.058-4.234t2.2-4.593q.718-1.554,1.986-4.21t1.914-4.258q.647-1.6,1.722-4.354a12.832,12.832,0,0,0,1.077-4.33A1.339,1.339,0,0,0,33.682.574q-1.868,0-5.5,4.019-1.962,2.25-3.3,3.9T20.6,13.922q-2.941,3.78-4.282,5.455Q13.253,14.353,8.9,14.353a4.985,4.985,0,0,0-3.493,1.1,3.919,3.919,0,0,0-1.2,3.038A7.4,7.4,0,0,0,5.837,22.7a13.466,13.466,0,0,0,4.593,3.9A69.514,69.514,0,0,1,.1,36.648a.325.325,0,0,0-.1.239.814.814,0,0,0,.143.383,1.525,1.525,0,0,0,1.483.718l1.531-1.435q1.531-1.389,4.091-4.044t4.617-5.19v-.048a22.541,22.541,0,0,0,7.08,1.674q.478,2.583.67,4.067,0,1.914,1.006,1.914a.614.614,0,0,0,.573-.383q.717-1.722,2.584-5.6A27.342,27.342,0,0,0,29.6,28a13.383,13.383,0,0,0-1.416,5.155q0,2.346,2.153,2.345,1.9,0,6-2.469a2.236,2.236,0,0,0-.552,1.3q0,1.6,2.417,1.6a12.085,12.085,0,0,0,5.43-1.554,54.015,54.015,0,0,0,5.161-3.023l-.057.7a7.227,7.227,0,0,0-.048.957q0,2.489,1.484,2.488,2.258,0,7.636-3.5a4.566,4.566,0,0,0-.46,1.92q0,1.2,1.291,1.2a6.96,6.96,0,0,0,2.942-.789,7.683,7.683,0,0,0,1.986-1.173,3.475,3.475,0,0,0-.192,1.1A1.1,1.1,0,0,0,64.613,35.5q2.525,0,8.947-4.37c.385-.25.666-.441.812-.558l2.392-1.914.479-.239c.063,0,.1.065.1.192a24.969,24.969,0,0,1-1.89,3.014q-1.891,2.823-1.89,3.492c0,.446.1.67.286.67a16.3,16.3,0,0,0,3.4-2.2q3.013-2.2,5.215-3.779a6.139,6.139,0,0,1-.479.741q-.479.695-1.124,1.7a3.834,3.834,0,0,0-.646,2.106q0,1.148,1.484,1.148c1.406,0,3.732-1.032,6.951-3.064a3.517,3.517,0,0,0-.446,1.581q0,1.386,2.035,1.387t5.86-3.349a7.227,7.227,0,0,0-.048.957q0,2.679,2.01,2.679a3.789,3.789,0,0,0,2.009-.622,4.15,4.15,0,0,0,.357-.25c.228.737,1,1.111,2.339,1.111a12.085,12.085,0,0,0,5.43-1.554,53.61,53.61,0,0,0,5.549-3.278.844.844,0,0,0,.335-.242,27.112,27.112,0,0,0,3.444-3.2,14.169,14.169,0,0,0,1.555.239q.6.048.6.239t-.693.837q-.7.646-1.531,1.364a7.9,7.9,0,0,0-1.531,1.818,3.962,3.962,0,0,0-.694,2.1,1.1,1.1,0,0,0,1.243,1.244q2.537,0,8.995-4.4c.288-.127.431-.287.431-.478a1.013,1.013,0,0,0-.048-.383Zm-22.1-10.167a52.117,52.117,0,0,1,4.761-6.817q2.271-2.679,3.085-2.679.287,0,.287.382,0,1.962-3.684,6.985a100.093,100.093,0,0,1-8.133,9.713A41.253,41.253,0,0,1,102.217,21.027Zm-90.64,4.187a14.622,14.622,0,0,1-4.329-3.66,6.253,6.253,0,0,1-1.6-3.493,2.614,2.614,0,0,1,.862-2.129,3.962,3.962,0,0,1,2.583-.718q3.875,0,6.7,4.88Q13.013,23.539,11.577,25.214Zm1.341.765q2.009-2.535,3.539-4.593a32.14,32.14,0,0,1,2.2,6.411A21.381,21.381,0,0,1,12.918,25.979Zm7.607,6.076-.575-3.014h2.01Q21.1,30.907,20.525,32.055Zm1.865-3.923a16.423,16.423,0,0,1-2.679-.192,34.4,34.4,0,0,0-2.679-7.319q.909-1.2,2.775-3.708T22.7,13.062q1.029-1.339,2.608-3.373t2.535-3.182q.959-1.149,2.513-2.871t2.415-1.722q.575,0,.575.813Q33.347,5.36,22.39,28.132Zm11.912-6.2a52.981,52.981,0,0,1,5.838-8.014q3.014-3.346,4.5-3.348c.384,0,.59.351.623,1.052q-.192,2.25-3.254,6.315a68.159,68.159,0,0,1-6.219,7.225q-3.158,3.158-5.167,4.784A31.3,31.3,0,0,1,34.3,21.936ZM63.058,32.653a4.483,4.483,0,0,1-2.321.837q-1,0-1-.765,0-1.818,2.846-4.139t4.521-2.32c.51,0,.842.245.765.718a8.945,8.945,0,0,1-1.654,3.257c-.155.125-.454.364-.905.738A21.761,21.761,0,0,1,63.058,32.653Zm33.274-1.89q-3.732,3.588-5.023,3.589-.814,0-.814-.718,0-1.387,2.488-3.875A10.7,10.7,0,0,1,97.816,26.7,27.408,27.408,0,0,0,96.332,30.763Zm19.7-5.884a2.274,2.274,0,0,1,.957-1.6,2.747,2.747,0,0,1,1.675-.837q.717,0,.717,1.124a4.528,4.528,0,0,1-1.243,2.655Q116.034,25.837,116.035,24.879Z"/><path d="M201.2,23.061a1.977,1.977,0,0,0,1.484-.742,2.211,2.211,0,0,0,.669-1.459.634.634,0,0,0-.717-.718,2.48,2.48,0,0,0-1.34.527,1.673,1.673,0,0,0-.766,1.458Q200.531,23.062,201.2,23.061Z"/><path d="M249.953,30.237l-1.532.957a32.7,32.7,0,0,1-3.54,1.89,8.14,8.14,0,0,1-3.038.933q-1.029,0-1.028-.431a7.542,7.542,0,0,1,1.626-2.8,12.9,12.9,0,0,0,1.626-2.416.582.582,0,0,0-.574-.67,1.166,1.166,0,0,0-.622.216q-.335.214-2.2,1.626t-3.588,2.68a11.137,11.137,0,0,1-1.89,1.267.319.319,0,0,1-.215-.048q.144-.287,1.077-1.674t1.675-2.679a4.527,4.527,0,0,0,.741-1.914q0-.621-.718-.622a32.108,32.108,0,0,0-3.875,2.871,24.452,24.452,0,0,1-2.262,1.594,4.775,4.775,0,0,1-2.426.607h-.575a7.986,7.986,0,0,0,1.819-4.593q0-3.158-2.919-3.158a4.491,4.491,0,0,0-2.846,1.22,3.664,3.664,0,0,0-1.459,2.894,3.817,3.817,0,0,0,.19,1.292c-.3.375-.568.738-.8,1.092l-3.643,2.114a11.774,11.774,0,0,1-4.474,1.531q-1.411,0-1.412-1.1,0-2.152,3.637-8.133a54.911,54.911,0,0,0,5.789-4.641l9-.382q1.242-.048,1.243-.958,0-.191-.813-.191t-4.449.144l-3.637.047q3.35-3.444,3.349-5.74,0-.718-.669-.718-1.866,0-6.985,6.554c-1.176.018-2.386.019-3.583.027.491-.624.978-1.251,1.454-1.892q3.372-4.545,3.372-6.555,0-1.291-.908-1.292-2.49,0-6.818,4.617a56.922,56.922,0,0,0-7.7,10.43,26.724,26.724,0,0,0-3.175,7.272c-.9.532-1.9,1.058-3.021,1.579a8.14,8.14,0,0,1-2.966.933q-.717-.1-.717-.575a8.16,8.16,0,0,1,1.482-3.085,25.253,25.253,0,0,1,2.106-2.99q.621-.671.621-.862a1.238,1.238,0,0,0-.861-.43.752.752,0,0,0-.67.382,33.338,33.338,0,0,0-2.873,3.872l-1.384.865a32.533,32.533,0,0,1-3.541,1.89,8.136,8.136,0,0,1-3.037.933c-.687,0-1.029-.144-1.029-.431a8.093,8.093,0,0,1,1.651-2.894,13.983,13.983,0,0,0,1.65-2.512.582.582,0,0,0-.574-.67,1.17,1.17,0,0,0-.622.215q-.334.216-2.248,1.651t-3.684,2.7a11.793,11.793,0,0,1-1.938,1.268.321.321,0,0,1-.215-.048q.525-.907,2.177-3.421a11.532,11.532,0,0,0,1.65-2.942q0-.669-.717-.67-.384,0-4.929,3.78T173.5,33.825c-.065,0-.095-.055-.095-.167a16.676,16.676,0,0,1,1.459-2.32,7.43,7.43,0,0,0,1.459-2.847q0-.693-.6-.694a6.931,6.931,0,0,0-2.632,1.555,28.116,28.116,0,0,1-2.415,1.746.6.6,0,0,0-.044.063l-.052.033a32.626,32.626,0,0,1-3.541,1.89,8.254,8.254,0,0,1-2.8.933q-.79,0-.79-.479a3.267,3.267,0,0,1,.742-1.674,4.567,4.567,0,0,0,.741-1.244q0-.431-.478-.478a5.787,5.787,0,0,0-1.028.837,17.163,17.163,0,0,1-2.249,1.674,4.483,4.483,0,0,1-2.321.837q-1,0-1-.765,0-1.818,2.846-4.139t4.522-2.32q.765,0,.765.718a2.193,2.193,0,0,1-.861,1.387l-.144.335c0,.224.1.335.287.335q.382,0,1.34-.861a2.343,2.343,0,0,0,.957-1.627q0-1.338-1.579-1.339a9.372,9.372,0,0,0-4.661,1.621,19.663,19.663,0,0,1-6.136,1.345q3.061-5.644,12.439-21.96,2.583-4.545,2.918-5.119a1.989,1.989,0,0,0,.335-.838q0-.262-.382-.263a2.222,2.222,0,0,0-1.962,1.053q-9.282,16.6-14.687,27.127a24.059,24.059,0,0,1-3.254-.192,24.338,24.338,0,0,0-2.44-6.267Q158.639,3.11,158.638,2.9c0-.144-.112-.215-.335-.215a2.106,2.106,0,0,0-1.867.765L147.108,19.9a20.273,20.273,0,0,0-4.474-4.832,7.481,7.481,0,0,0-4.282-1.818q-2.87,0-2.87,3.971a8.229,8.229,0,0,0,2.1,5.478,15.724,15.724,0,0,0,5.6,4.042l-6.89,12.1a1.533,1.533,0,0,0-.191.67c0,.318.143.478.43.478a2.226,2.226,0,0,0,.909-.287l1-.718,6.458-11.53a23.734,23.734,0,0,0,4.833,1.2,22.458,22.458,0,0,1,.622,5.167q0,1.2.86,1.2c.224,0,.431-.16.623-.478a3.255,3.255,0,0,0,.311-.55c.111-.24.183-.4.215-.479s.814-1.586,2.345-4.521a20.986,20.986,0,0,0,4.356-.585c-2.4,1.874-3.606,3.712-3.606,5.513q0,1.2,1.291,1.2a6.957,6.957,0,0,0,2.942-.789,7.664,7.664,0,0,0,1.986-1.173,3.475,3.475,0,0,0-.192,1.1,1.1,1.1,0,0,0,1.245,1.244q2.522,0,8.932-4.36l.588-.377a4.794,4.794,0,0,0,.479-.335,7.211,7.211,0,0,1,.67-.454,1,1,0,0,1,.406-.167c.079,0,.12.071.12.215a19.988,19.988,0,0,1-1.747,2.847,21.806,21.806,0,0,0-1.746,2.822.747.747,0,0,0,.622.814,1.808,1.808,0,0,0,1.292-.814q1.769-1.58,4.927-3.971a33.453,33.453,0,0,1,3.733-2.631l-3.445,5.358q0,.957.43.957a4,4,0,0,0,1.411-.454q.981-.455,7.392-5.143a5.891,5.891,0,0,1-.478.741q-.479.695-1.124,1.7a3.834,3.834,0,0,0-.646,2.106q0,1.148,1.483,1.148c1.636,0,4.509-1.387,8.594-4.135a6.562,6.562,0,0,0-1.036,2.891,1.1,1.1,0,0,0,1.244,1.244c1.442,0,3.845-1.078,7.191-3.213a6.881,6.881,0,0,0-.062.868q0,2.346,2.153,2.345c1.434,0,3.818-1.067,7.134-3.178a4.675,4.675,0,0,0-.244,1.312l.095.383a1.22,1.22,0,0,0,.575.765,2.485,2.485,0,0,0,1.482.383q2.056,0,5.933-1.962c1.041-.6,2-1.205,2.9-1.808a5.227,5.227,0,0,0-.65,2.335q0,1.913,1.482,1.913a4.92,4.92,0,0,0,2.513-.932,12.889,12.889,0,0,0,2.751-2.417h.574a6.467,6.467,0,0,0,3.444-.908c.048-.042.071-.074.109-.112l.13-.08q.669-.43.909-.622l2.392-1.914.478-.239c.064,0,.1.065.1.192a24.81,24.81,0,0,1-1.89,3.014q-1.89,2.823-1.889,3.492c0,.446.095.67.286.67a16.28,16.28,0,0,0,3.4-2.2q3.015-2.2,5.215-3.779a6.038,6.038,0,0,1-.478.741q-.478.695-1.124,1.7a3.834,3.834,0,0,0-.646,2.106q0,1.148,1.483,1.148,2.536,0,8.994-4.4c.288-.127.431-.287.431-.478A1.041,1.041,0,0,0,249.953,30.237Zm-106.29-4.306a13.1,13.1,0,0,1-4.76-3.779,8.242,8.242,0,0,1-1.747-5.119q0-1.962,1.627-1.962a6.453,6.453,0,0,1,3.636,1.674,18.546,18.546,0,0,1,3.971,4.4Zm1.722.718q.047-.1,2.105-3.732a28.052,28.052,0,0,1,2.01,4.88A20.432,20.432,0,0,1,145.385,26.649Zm5.836,6.889-.047-.526a20.9,20.9,0,0,0-.431-4.21q1.818.192,2.68.191Q151.557,32.773,151.221,33.538Zm74.285-19.711c.127,0,.192.08.192.239q0,1.866-2.68,4.784h-2.392Q224.4,13.828,225.506,13.827Zm-5.884,6.411q.525-.048,2.057-.048a49.5,49.5,0,0,1-4.306,3.493q.286-.43,1.053-1.627T219.622,20.238Zm-11.531,1.7a52.979,52.979,0,0,1,5.837-8.014q3.014-3.346,4.5-3.348.574,0,.622,1.052-.192,2.25-3.254,6.315c-.255.34-.513.661-.769.991-.641,0-1.264.014-1.909.014-.735.032-1.1.352-1.1.957,0,.3.624.46,1.859.475a64.268,64.268,0,0,1-4.3,4.788q-3.158,3.158-5.167,4.784A31.3,31.3,0,0,1,208.091,21.936Zm.335,11.148a8.267,8.267,0,0,1-2.8.933,1.226,1.226,0,0,1-1.125-.527,2.351,2.351,0,0,1-.383-.861,4.241,4.241,0,0,1-.048-.6,9.948,9.948,0,0,1,.1-1.028,49.167,49.167,0,0,0,5.981-5.455c1.607-1.647,3.143-3.378,4.621-5.175,1.167-.008,2.377-.033,3.656-.088a76.146,76.146,0,0,0-5.215,7.871,27.818,27.818,0,0,0-1.643,3.276A33.545,33.545,0,0,1,208.426,33.084Zm15.548.981q-.765,0-.765-.862a5.526,5.526,0,0,1,.765-2.87,4.82,4.82,0,0,0,3.205,1.818Q225.265,34.065,223.974,34.065Zm3.875-2.584a5,5,0,0,1-3.2-2.2,17.249,17.249,0,0,1,2.87-2.679c.351-.255.526-.455.526-.6s-.047-.215-.143-.215a1.114,1.114,0,0,0-.383.095,12.45,12.45,0,0,0-3.253,2.44,3.817,3.817,0,0,1-.144-1.172,1.763,1.763,0,0,1,.957-1.387,3.641,3.641,0,0,1,2.081-.646,2.859,2.859,0,0,1,1.843.574,2.019,2.019,0,0,1,.717,1.675A6.572,6.572,0,0,1,227.849,31.481Z"/></svg>